<?xml version="1.0" encoding="UTF-8"?><svg id="Layer_1" xmlns="http://www.w3.org/2000/svg" viewBox="0 0 1811 337.35"><defs><style>.cls-1{fill:#fff;stroke-width:0px;}</style></defs><path class="cls-1" d="m168.8,306.51c-9.99,0-16.17-8.78-16.17-20.93s5.16-21.04,16.1-21.04c7.17,0,11.85,4.54,12.7,10.46h16.65c-.84-7.39-4.24-13.9-10.06-18.26-4.79-3.62-11.38-5.82-19.21-5.82-20.05,0-33.14,14.93-33.14,34.65s13.46,34.35,33.22,34.35c9.51,0,16.39-2.6,21.55-7.5,4.61-4.35,7.61-10.39,8.09-16.94h-16.65c-.77,6.4-5.63,11.01-13.1,11.01h.04Z"/><path class="cls-1" d="m228.1,269.77c-15.44,0-25.79,10.83-25.79,25.1s10.35,25.1,25.79,25.1,25.68-10.83,25.68-25.1-10.17-25.1-25.68-25.1Zm-.11,39.44c-6.7,0-10.17-5.74-10.17-14.34s3.48-14.45,10.17-14.45,10.24,5.82,10.24,14.45-3.58,14.34-10.24,14.34Z"/><path class="cls-1" d="m442.05,275.59c-4.14-3.7-9.59-5.93-16.47-5.93-14.67,0-24.77,10.83-24.77,24.99s9.81,25.21,25.69,25.21c6.11,0,11.01-1.57,15.07-4.35,4.24-2.85,7.06-6.95,8.08-11.2h-14.96c-1.32,2.96-3.95,4.72-8.01,4.72-6.29,0-9.88-3.99-10.83-10.39h34.65c.11-9.62-2.75-17.89-8.49-23.05h.04Zm-27.48,14.08c1.02-5.63,4.06-9.26,9.88-9.26,4.97,0,8.56,3.62,9.14,9.26h-19.02Z"/><path class="cls-1" d="m533.3,288.83l16.94-17.78h-17.71l-14.31,16.02v-34.83h-15.14v66.22h15.14v-14.52l4.61-4.83,11.6,19.35h17.78l-18.91-29.63Z"/><path class="cls-1" d="m366.24,252.25h-28.72v66.22h27.66c8.49,0,15.26-2.12,20.52-6.04,7.54-5.63,11.68-15,11.68-26.67,0-20.27-12.52-33.51-31.17-33.51h.03Zm-3.66,52.43h-9.8v-38.71h9.99c10.46,0,16.39,7.79,16.39,19.83s-5.64,18.88-16.58,18.88Z"/><path class="cls-1" d="m479.66,288.54c-6.1-1.1-11.56-1.57-11.56-4.9,0-2.96,2.93-4.35,6.7-4.35,4.24,0,7.17,1.28,7.72,5.56h14.12c-.77-9.37-8.09-15.18-21.73-15.18-11.38,0-20.82,5.2-20.82,15.18,0,11.12,8.93,13.35,17.31,14.74,6.4,1.1,12.22,1.57,12.22,5.82,0,3.07-2.93,4.72-7.54,4.72-5.09,0-8.27-2.31-8.85-7.02h-14.49c.47,10.46,9.33,16.86,23.45,16.86,12.62,0,21.91-5.38,21.91-15.73,0-12.15-9.98-14.27-18.44-15.66v-.04Z"/><path class="cls-1" d="m314.27,269.66c-6.7,0-11.31,2.78-14.86,7.87h-.29v-6.48h-14.78v47.41h15.33v-26.19c0-5.82,3.4-9.99,8.49-9.99s7.53,3.44,7.53,8.41v27.77h15.33v-30.84c0-10.57-6.22-17.96-16.75-17.96Z"/><path class="cls-1" d="m255.03,281.66h7.61v36.8h14.6v-47.38h-22.21v10.57Z"/><path class="cls-1" d="m268.86,267.03c4.65,0,8.38-3.7,8.38-8.23s-3.77-8.23-8.38-8.23-8.38,3.69-8.38,8.23,3.77,8.23,8.38,8.23Z"/><path class="cls-1" d="m42.66,272.77c-3.62-2.05-7.65-3.04-12.07-3.04-4.13,0-7.65.88-10.57,2.71-1.1.66-2.05,1.54-2.96,2.45v-22.28H0v66.58h16.24v-4.94c1.03,1.21,2.16,2.23,3.44,3.04,2.89,1.79,6.55,2.71,10.9,2.71s8.45-1.02,12.07-3.11c3.62-2.05,6.48-4.97,8.6-8.71,2.12-3.73,3.18-8.19,3.18-13.43s-1.06-9.58-3.18-13.32c-2.12-3.73-5.01-6.62-8.6-8.67Zm-6.8,28.32c-.91,1.76-2.16,3.11-3.7,3.99-1.54.88-3.26,1.35-5.16,1.35s-3.62-.44-5.16-1.35c-1.54-.91-2.74-2.23-3.7-3.99-.91-1.76-1.39-3.88-1.39-6.33s.48-4.54,1.39-6.22c.91-1.72,2.16-3,3.7-3.91,1.54-.91,3.26-1.35,5.16-1.35s3.62.44,5.16,1.35c1.54.91,2.74,2.2,3.7,3.91.91,1.72,1.39,3.77,1.39,6.22s-.48,4.57-1.39,6.33Z"/><path class="cls-1" d="m96,270.54l-12,29.71-11.93-29.71h-17.49l20.82,49.17c-.66,1.24-1.39,2.3-2.23,2.96-1.06.84-2.53,1.24-4.39,1.24-1.32,0-2.64-.26-3.99-.77-1.35-.51-2.52-1.21-3.55-2.12l-5.93,11.93c1.61,1.32,3.73,2.38,6.33,3.18,2.6.8,5.19,1.21,7.75,1.21,3.22,0,6.18-.48,8.85-1.43,2.67-.95,5.09-2.63,7.28-4.98,2.2-2.38,4.1-5.63,5.78-9.84l21-50.6h-16.24l-.07.04Z"/><path class="cls-1" d="m82.28,54.69c5.93-3.29,12.51-4.94,19.76-4.94s13.94,1.94,20.09,5.74c6.15,3.84,11.3,9.91,15.47,18.26l48.4-24.69c-6.15-15.58-16.57-27.66-31.28-36.22C140.01,4.28,122.56,0,102.36,0s-37.35,3.91-52.83,11.67c-15.48,7.79-27.58,18.58-36.37,32.41C4.39,57.91,0,73.83,0,91.83s4.39,33.95,13.17,47.89c8.78,13.94,20.89,24.84,36.37,32.74,15.48,7.9,33.07,11.85,52.83,11.85s37.65-4.28,52.35-12.84c14.71-8.56,25.13-20.63,31.28-36.22l-48.4-24.7c-4.17,8.34-9.33,14.42-15.47,18.26-6.15,3.84-12.84,5.74-20.09,5.74s-13.83-1.65-19.76-4.94c-5.93-3.29-10.57-8.12-13.98-14.49-3.4-6.36-5.09-14.16-5.09-23.38s1.68-16.61,5.09-22.87c3.4-6.26,8.05-11.01,13.98-14.3v.11Z"/><path class="cls-1" d="m346.09,11.74C330.83,3.95,313.46.07,293.92.07s-36.88,3.91-52.02,11.67c-15.15,7.79-27.04,18.58-35.71,32.41-8.67,13.83-12.99,29.74-12.99,47.74s4.32,33.95,12.99,47.89c8.67,13.94,20.56,24.84,35.71,32.74,15.15,7.9,32.49,11.85,52.02,11.85s36.91-3.95,52.17-11.85c15.26-7.9,27.15-18.8,35.71-32.74,8.56-13.94,12.84-29.89,12.84-47.89s-4.28-33.91-12.84-47.74c-8.56-13.83-20.45-24.62-35.71-32.41Zm-19.57,103.35c-3.29,6.47-7.72,11.34-13.32,14.63-5.6,3.29-12,4.94-19.24,4.94s-13.32-1.65-18.91-4.94c-5.6-3.29-10.1-8.16-13.5-14.63-3.4-6.48-5.08-14.19-5.08-23.19s1.68-16.61,5.08-22.87c3.4-6.26,7.9-11.01,13.5-14.3,5.6-3.29,11.89-4.94,18.91-4.94s13.65,1.65,19.24,4.94c5.6,3.29,10.02,8.05,13.32,14.3,3.29,6.26,4.94,13.87,4.94,22.87s-1.65,16.72-4.94,23.19Z"/><path class="cls-1" d="m574.05,8.45c-11.19-5.6-23.71-8.38-37.54-8.38-14.93,0-28.32,3.26-40.17,9.69-6.18,3.37-11.67,7.65-16.46,12.77V3h-59.6v178.42h62.52v-86.23c0-9.88,1.54-17.89,4.61-24.04,3.07-6.15,7.35-10.68,12.84-13.65,5.49-2.96,11.52-4.43,18.11-4.43,9.22,0,16.39,2.93,21.55,8.71,5.16,5.82,7.72,15.07,7.72,27.8v91.83h62.56v-102.03c0-18.44-3.26-33.47-9.7-45.11-6.47-11.63-15.29-20.23-26.49-25.83h.04Z"/><path class="cls-1" d="m778.59,85.46c-6.26-3.84-13.17-6.73-20.74-8.71-7.57-1.98-15.07-3.44-22.54-4.43-7.46-.99-14.3-1.98-20.56-2.96-6.26-.99-11.27-2.41-14.96-4.28-3.73-1.87-5.6-4.54-5.6-8.05s2.12-6.48,6.4-8.89c4.28-2.41,11.67-3.62,22.21-3.62,7.9,0,16.24.95,25.02,2.78,8.78,1.87,17.56,5.34,26.34,10.35l18.77-42.47c-8.78-5.05-19.57-8.82-32.41-11.34-12.84-2.52-25.5-3.77-38.01-3.77-18.66,0-34.46,2.6-47.41,7.72-12.95,5.16-22.76,12.18-29.45,21.07-6.7,8.89-10.02,19.02-10.02,30.44,0,10.1,1.87,18.44,5.6,25.02,3.73,6.59,8.71,11.82,14.96,15.62,6.26,3.84,13.17,6.7,20.74,8.56,7.57,1.86,15.07,3.36,22.54,4.43,7.46,1.1,14.3,2.09,20.56,2.96,6.26.88,11.3,2.12,15.15,3.77,3.84,1.65,5.74,4.24,5.74,7.72,0,3.73-2.01,6.69-6.07,8.89-4.06,2.2-11.34,3.29-21.88,3.29s-21.73-1.46-32.93-4.43c-11.2-2.96-20.96-6.95-29.3-12l-18.77,42.8c8.78,5.27,20.34,9.66,34.72,13.17,14.38,3.51,29.12,5.27,44.27,5.27,19.32,0,35.49-2.63,48.55-7.9,13.06-5.27,22.94-12.29,29.63-21.07s10.02-18.66,10.02-29.63c0-10.1-1.87-18.36-5.6-24.84-3.73-6.48-8.71-11.63-14.96-15.48Z"/><path class="cls-1" d="m957.82,10.76c-14.49-7.13-30.51-10.68-48.07-10.68-18.66,0-35.45,3.91-50.38,11.67-14.93,7.79-26.6,18.66-35.05,32.6-8.45,13.94-12.66,29.78-12.66,47.56s4.32,33.62,12.99,47.56c8.67,13.94,20.85,24.91,36.55,32.93,15.7,8.01,34.06,12,55.13,12,17.12,0,31.94-2.45,44.45-7.39,12.51-4.94,23.05-12.11,31.61-21.55l-32.93-34.24c-6.15,5.27-12.33,9.18-18.58,11.67-6.26,2.52-13.79,3.77-22.54,3.77-9.44,0-17.56-1.68-24.36-5.09-6.81-3.4-12-8.27-15.62-14.63-1.54-2.71-2.71-5.71-3.59-8.89h129.51c.22-2.41.44-5.05.66-7.9.22-2.85.33-5.38.33-7.57,0-19.76-4.28-36.55-12.84-50.38-8.56-13.83-20.09-24.29-34.57-31.43h-.04Zm-67.32,38.67c5.6-3.29,12.11-4.94,19.57-4.94s13.98,1.65,19.57,4.94c5.6,3.29,9.99,7.9,13.17,13.83,1.9,3.55,3.11,7.54,3.8,11.85h-72.88c.73-4.24,1.94-8.16,3.73-11.67,3.07-6.04,7.39-10.68,12.99-13.98l.04-.04Z"/><path class="cls-1" d="m1184.64,8.45c-11.19-5.6-23.71-8.38-37.53-8.38-14.93,0-28.32,3.26-40.17,9.69-6.19,3.37-11.67,7.65-16.47,12.77V3h-59.59v178.42h62.52v-86.23c0-9.88,1.54-17.89,4.61-24.04,3.07-6.15,7.35-10.68,12.84-13.65,5.49-2.96,11.52-4.43,18.11-4.43,9.22,0,16.39,2.93,21.55,8.71,5.16,5.82,7.72,15.07,7.72,27.8v91.83h62.56v-102.03c0-18.44-3.26-33.47-9.7-45.11-6.47-11.63-15.29-20.23-26.49-25.83h.04Z"/><path class="cls-1" d="m1389.19,85.46c-6.26-3.84-13.17-6.73-20.75-8.71-7.57-1.98-15.07-3.44-22.53-4.43-7.47-.99-14.31-1.98-20.56-2.96-6.26-.99-11.27-2.41-14.97-4.28-3.73-1.87-5.59-4.54-5.59-8.05s2.12-6.48,6.4-8.89c4.28-2.41,11.67-3.62,22.2-3.62,7.91,0,16.25.95,25.03,2.78,8.78,1.87,17.56,5.34,26.34,10.35l18.77-42.47c-8.78-5.05-19.58-8.82-32.42-11.34-12.84-2.52-25.5-3.77-38.01-3.77-18.66,0-34.46,2.6-47.41,7.72-12.95,5.16-22.76,12.18-29.45,21.07-6.7,8.89-10.03,19.02-10.03,30.44,0,10.1,1.87,18.44,5.6,25.02,3.73,6.59,8.71,11.82,14.96,15.62,6.26,3.84,13.17,6.7,20.75,8.56,7.57,1.86,15.07,3.36,22.53,4.43,7.47,1.1,14.31,2.09,20.56,2.96,6.26.88,11.31,2.12,15.15,3.77,3.84,1.65,5.74,4.24,5.74,7.72,0,3.73-2.01,6.69-6.07,8.89-4.06,2.2-11.34,3.29-21.88,3.29s-21.73-1.46-32.92-4.43c-11.2-2.96-20.97-6.95-29.31-12l-18.76,42.8c8.78,5.27,20.34,9.66,34.71,13.17,14.38,3.51,29.13,5.27,44.27,5.27,19.32,0,35.49-2.63,48.55-7.9,13.06-5.27,22.94-12.29,29.63-21.07,6.7-8.78,10.03-18.66,10.03-29.63,0-10.1-1.87-18.36-5.6-24.84-3.73-6.48-8.71-11.63-14.96-15.48Z"/><path class="cls-1" d="m1558.57,88.9c0,9.88-1.54,17.93-4.61,24.18-3.07,6.26-7.13,10.83-12.18,13.65-5.05,2.85-10.65,4.28-16.79,4.28-9.44,0-16.72-2.96-21.88-8.89-5.16-5.93-7.72-15.8-7.72-29.63V2.96h-62.52v99.73c0,18.66,3.22,34.06,9.69,46.24,6.48,12.18,15.48,21.11,27,26.82,11.53,5.71,24.51,8.56,39,8.56,13.61,0,26.23-3.22,37.87-9.7,5.7-3.18,10.75-7.17,15.14-11.96v18.73h59.6V2.96h-62.56v85.9l-.04.04Z"/><path class="cls-1" d="m1805.41,100.94c-3.73-6.48-8.71-11.63-14.97-15.48-6.25-3.84-13.17-6.73-20.74-8.71-7.57-1.98-15.07-3.44-22.54-4.43-7.46-.99-14.3-1.98-20.56-2.96-6.25-.99-11.26-2.41-14.96-4.28-3.73-1.87-5.6-4.54-5.6-8.05s2.13-6.48,6.41-8.89c4.28-2.41,11.67-3.62,22.2-3.62,7.91,0,16.25.95,25.03,2.78,8.78,1.87,17.56,5.34,26.34,10.35l18.77-42.47c-8.78-5.05-19.58-8.82-32.42-11.34-12.84-2.52-25.5-3.77-38.01-3.77-18.66,0-34.46,2.6-47.41,7.72-12.95,5.16-22.76,12.18-29.45,21.07-6.7,8.89-10.03,19.02-10.03,30.44,0,10.1,1.87,18.44,5.6,25.02,3.73,6.59,8.71,11.82,14.96,15.62,6.26,3.84,13.17,6.7,20.75,8.56,7.57,1.86,15.07,3.36,22.53,4.43,7.47,1.1,14.31,2.09,20.56,2.96,6.26.88,11.31,2.12,15.15,3.77,3.84,1.65,5.74,4.24,5.74,7.72,0,3.73-2.01,6.69-6.07,8.89-4.06,2.2-11.34,3.29-21.88,3.29s-21.73-1.46-32.92-4.43c-11.2-2.96-20.97-6.95-29.31-12l-18.77,42.8c8.78,5.27,20.34,9.66,34.72,13.17,14.38,3.51,29.12,5.27,44.27,5.27,19.32,0,35.49-2.63,48.55-7.9,13.06-5.27,22.94-12.29,29.63-21.07,6.7-8.78,10.02-18.66,10.02-29.63,0-10.1-1.86-18.36-5.59-24.84Z"/></svg>