<svg width="32" height="32" viewBox="0 0 32 32" fill="none" xmlns="http://www.w3.org/2000/svg">
<rect width="32" height="32" rx="10" fill="#020A0A"/>
<path d="M16.4797 4H16.292V12.0934H25.2586L25.1894 11.5938C24.899 9.50535 23.8647 7.58525 22.2764 6.18812C20.6736 4.77656 18.6146 4 16.4797 4ZM15.2337 4H14.7961C9.94597 4 6 7.9591 6 12.8253V14.9708H15.2337V4ZM15.2337 16.0292H6V18.1747C6 23.0409 9.94597 27 14.7961 27H15.2337V16.0292ZM25.2696 18.7829H16.2927V27H16.4803C20.9085 27 24.6606 23.6793 25.2086 19.2756L25.2696 18.7829Z" fill="white"/>
</svg>
